<?xml version="1.0" encoding="iso-8859-1"?>
<!-- Uploaded to: SVG Repo, www.svgrepo.com, Generator: SVG Repo Mixer Tools -->
<svg fill="#000000" height="800px" width="800px" version="1.1" id="Layer_1" xmlns="http://www.w3.org/2000/svg" xmlns:xlink="http://www.w3.org/1999/xlink" 
	 viewBox="0 0 512 512" xml:space="preserve">
<g>
	<g>
		<path d="M161.391,311.652c16.549,0,283.578,0,300.522,0c8.162,0,15.126-5.9,16.469-13.951l33.391-200.348
			c0.807-4.841-0.557-9.791-3.73-13.537c-3.172-3.744-7.831-5.904-12.739-5.904H123.462L111,13.524C109.48,5.671,102.606,0,94.609,0
			H16.696C7.475,0,0,7.475,0,16.696s7.475,16.696,16.696,16.696h64.139l49.492,255.711c-11.576,9.183-19.022,23.356-19.022,39.246
			c0,27.618,22.469,50.087,50.087,50.087h306.087c9.22,0,16.696-7.475,16.696-16.696s-7.475-16.696-16.696-16.696H161.391
			c-9.206,0-16.696-7.49-16.696-16.696S152.185,311.652,161.391,311.652z M129.926,111.305h345.67L447.77,278.261h-285.53
			L129.926,111.305z"/>
	</g>
</g>
<g>
	<g>
		<path d="M217.043,411.826c-27.618,0-50.087,22.469-50.087,50.087S189.426,512,217.043,512c27.618,0,50.087-22.469,50.087-50.087
			S244.661,411.826,217.043,411.826z M217.043,478.609c-9.206,0-16.696-7.49-16.696-16.696s7.49-16.696,16.696-16.696
			c9.206,0,16.696,7.49,16.696,16.696S226.249,478.609,217.043,478.609z"/>
	</g>
</g>
<g>
	<g>
		<path d="M406.261,411.826c-27.618,0-50.087,22.469-50.087,50.087S378.643,512,406.261,512s50.087-22.469,50.087-50.087
			S433.879,411.826,406.261,411.826z M406.261,478.609c-9.206,0-16.696-7.49-16.696-16.696s7.49-16.696,16.696-16.696
			s16.696,7.49,16.696,16.696S415.467,478.609,406.261,478.609z"/>
	</g>
</g>
<g>
	<g>
		<path d="M304.974,144.696c-9.22,0-16.696,7.475-16.696,16.696v66.783c0,9.22,7.475,16.696,16.696,16.696
			c9.22,0,16.696-7.475,16.696-16.696v-66.783C321.67,152.171,314.194,144.696,304.974,144.696z"/>
	</g>
</g>
<g>
	<g>
		<path d="M405.148,144.696c-9.22,0-16.696,7.475-16.696,16.696v66.783c0,9.22,7.475,16.696,16.696,16.696
			s16.696-7.475,16.696-16.696v-66.783C421.843,152.171,414.368,144.696,405.148,144.696z"/>
	</g>
</g>
<g>
	<g>
		<path d="M205.913,144.696c-9.22,0-16.696,7.475-16.696,16.696v66.783c0,9.22,7.475,16.696,16.696,16.696
			c9.22,0,16.696-7.475,16.696-16.696v-66.783C222.609,152.171,215.133,144.696,205.913,144.696z"/>
	</g>
</g>
</svg>